<svg width="22" height="24" viewBox="0 0 22 24" fill="none" xmlns="http://www.w3.org/2000/svg">
<g filter="url(#filter0_d)">
<path d="M14.0562 10.9406L8.99369 9.45938C8.40775 9.29063 7.99994 8.74219 7.99994 8.13281C7.99994 7.36875 8.61869 6.75 9.38275 6.75H12.4906C13.0624 6.75 13.6249 6.92344 14.0937 7.24219C14.3796 7.43437 14.764 7.3875 15.0078 7.14844L16.639 5.55469C16.9718 5.23125 16.9249 4.69219 16.5546 4.40625C15.4062 3.50625 13.9718 3.00469 12.4999 3V0.75C12.4999 0.3375 12.1624 0 11.7499 0H10.2499C9.83744 0 9.49994 0.3375 9.49994 0.75V3H9.38275C6.39682 3 3.99682 5.56406 4.27338 8.60625C4.47025 10.7672 6.12025 12.525 8.2015 13.1344L13.0062 14.5406C13.5921 14.7141 13.9999 15.2578 13.9999 15.8672C13.9999 16.6313 13.3812 17.25 12.6171 17.25H9.50932C8.93744 17.25 8.37494 17.0766 7.90619 16.7578C7.62025 16.5656 7.23588 16.6125 6.99213 16.8516L5.36088 18.4453C5.02807 18.7687 5.07494 19.3078 5.44525 19.5938C6.59369 20.4937 8.02807 20.9953 9.49994 21V23.25C9.49994 23.6625 9.83744 24 10.2499 24H11.7499C12.1624 24 12.4999 23.6625 12.4999 23.25V20.9906C14.6843 20.9484 16.7328 19.65 17.4546 17.5828C18.4624 14.6953 16.7703 11.7328 14.0562 10.9406Z" fill="#868C90"/>
</g>
<defs>
<filter id="filter0_d" x="0.251648" y="0" width="21.4971" height="32" filterUnits="userSpaceOnUse" color-interpolation-filters="sRGB">
<feFlood flood-opacity="0" result="BackgroundImageFix"/>
<feColorMatrix in="SourceAlpha" type="matrix" values="0 0 0 0 0 0 0 0 0 0 0 0 0 0 0 0 0 0 127 0"/>
<feOffset dy="4"/>
<feGaussianBlur stdDeviation="2"/>
<feColorMatrix type="matrix" values="0 0 0 0 0 0 0 0 0 0 0 0 0 0 0 0 0 0 0.25 0"/>
<feBlend mode="normal" in2="BackgroundImageFix" result="effect1_dropShadow"/>
<feBlend mode="normal" in="SourceGraphic" in2="effect1_dropShadow" result="shape"/>
</filter>
</defs>
</svg>
